# xmcd
#
# Track frame offsets:
#	150
#	13862
#	23747
#	38532
#	51960
#	67877
#	84605
#	100260
#	115077
#	129935
#	148062
#	165427
#	182197
#	198497
#	215150
#	230072
#	243092
#	260407
#	275902
#	288540
#	298442
#	306525
#	320062
#
# Disc length: 4402 seconds
#
# Revision: 1
# Processed by: cddbd v1.4PL0 Copyright (c) Steve Scherf et al.
# Submitted via: audiograbber 1.81.03
#
DISCID=68113017
DTITLE=Tim and Willy  - Box Of Puppies (Disk 2)
DYEAR=2002
DGENRE=Country
TTITLE0=Nickel Creek - "You Don't Have To Move That Mountian"
TTITLE1=David Ball - "Amigo"
TTITLE2=Monty Byrom - "Summer Gone"
TTITLE3=Emerson Drive - "I Should Be Sleeping"
TTITLE4=Shannon Lawson - "Let's Get It On"
TTITLE5=Jeffrey Steele - "Unintelligible - Unbelievable"
TTITLE6=Terri Clarck - "I Just Wanna Be Mad"
TTITLE7=Pin Monkey - "Barbed Wire and Roses"
TTITLE8=Pam Tillis - "Let That Pony Run"
TTITLE9=Monty Byrom - "If I Didn't Have You"
TTITLE10=Little Big Town - "Never Felt Love"
TTITLE11=Radney Foster - "Godspeed (Sweet Dreams)"
TTITLE12=Sixwire - "Way Too Deep"
TTITLE13=Joe Diffie, Mark Chesnutt, Tracy Lawrence - "Always Runnin' Behind"
TTITLE14=Anthony Smith - " If That 'Aint Country"
TTITLE15=Johnny Lee - "Cherokee Saxophone"
TTITLE16=Haywire - "Southern Comfort"
TTITLE17=Tim and Willy The All Earl Band  - "Follow Me"
TTITLE18=Tim and Willy - "Gift Wrapped For You"
TTITLE19=Tim and Willy - "D-Double-E-Double-R-U-N"
TTITLE20=Tim and Willy - "Christmas Lights"
TTITLE21=Steve Godard and Mom - "White Christmas"
TTITLE22=Nickel Creek - "Sleigh Ride"
EXTD=
EXTT0=
EXTT1=
EXTT2=
EXTT3=
EXTT4=
EXTT5=
EXTT6=
EXTT7=
EXTT8=
EXTT9=
EXTT10=
EXTT11=
EXTT12=
EXTT13=
EXTT14=
EXTT15=
EXTT16=
EXTT17=Featuring Gibby and The 6-O-Clock Baby
EXTT18=
EXTT19=
EXTT20=
EXTT21=
EXTT22=
PLAYORDER=
